<?xml version="1.0" encoding="utf-8"?>
<!-- Generator: Adobe Illustrator 16.0.0, SVG Export Plug-In . SVG Version: 6.00 Build 0)  -->
<!DOCTYPE svg PUBLIC "-//W3C//DTD SVG 1.1//EN" "http://www.w3.org/Graphics/SVG/1.1/DTD/svg11.dtd">
<svg version="1.1" id="Layer_1" xmlns="http://www.w3.org/2000/svg" xmlns:xlink="http://www.w3.org/1999/xlink" x="0px" y="0px"
	 width="200px" height="200px" viewBox="0 0 200 200" enable-background="new 0 0 200 200" xml:space="preserve">
<g>
	<polygon fill="#2D3786" points="100.002,145.763 100.002,111.823 100.002,111.823 66.064,111.823 66.064,77.881 32.125,77.881 
		32.125,145.763 	"/>
	<polygon fill="#5A9FCF" points="82.869,94.687 82.869,60.745 116.975,60.745 117.058,94.687 	"/>
	<polygon fill="#2D3786" points="100.002,10 100.002,43.94 100.002,43.94 133.944,43.94 133.942,77.881 167.885,77.881 167.885,10 	
		"/>
</g>
<g>
	<path fill="#4E4E4E" d="M42.997,174.301h-5.554v-16.015h-5.019v-4.542h15.579v4.542h-5.005V174.301z"/>
	<path fill="#4E4E4E" d="M68.559,174.301h-5.583v-8.379h-6.454v8.379h-5.581v-20.557h5.581v7.62h6.454v-7.62h5.583V174.301z"/>
	<path fill="#4E4E4E" d="M85.206,174.301H73.002v-20.557h12.204v4.458h-6.65v3.233h6.158v4.456h-6.158v3.883h6.65V174.301z"/>
	<path fill="#4E4E4E" d="M105.439,158.006c-1.322,0-2.353,0.54-3.093,1.623c-0.74,1.082-1.111,2.575-1.111,4.479
		c0,3.955,1.505,5.933,4.514,5.933c0.908,0,1.792-0.126,2.642-0.379c0.855-0.254,1.712-0.557,2.575-0.914v4.696
		c-1.717,0.759-3.657,1.139-5.822,1.139c-3.103,0-5.481-0.9-7.136-2.699c-1.654-1.8-2.481-4.402-2.481-7.804
		c0-2.128,0.401-3.997,1.202-5.611c0.802-1.61,1.954-2.85,3.459-3.719c1.504-0.866,3.273-1.299,5.308-1.299
		c2.221,0,4.344,0.482,6.37,1.448l-1.703,4.372c-0.758-0.356-1.518-0.656-2.277-0.9
		C107.126,158.126,106.311,158.006,105.439,158.006z"/>
	<path fill="#4E4E4E" d="M132.448,153.745v12.374c0,2.69-0.761,4.772-2.284,6.249c-1.524,1.478-3.718,2.215-6.586,2.215
		c-2.805,0-4.957-0.717-6.462-2.151c-1.504-1.435-2.257-3.496-2.257-6.188v-12.499h5.582v12.063c0,1.454,0.272,2.509,0.816,3.164
		c0.542,0.657,1.343,0.983,2.404,0.983c1.133,0,1.956-0.323,2.467-0.976c0.511-0.651,0.767-1.718,0.767-3.199v-12.036H132.448z"/>
	<path fill="#4E4E4E" d="M136.766,153.745h7.169c2.793,0,4.868,0.415,6.223,1.244c1.354,0.83,2.031,2.123,2.031,3.875
		c0,1.152-0.294,2.137-0.885,2.951c-0.591,0.816-1.368,1.341-2.334,1.576v0.141c1.274,0.337,2.197,0.899,2.77,1.688
		c0.572,0.786,0.858,1.809,0.858,3.063c0,1.866-0.701,3.335-2.103,4.409c-1.401,1.073-3.312,1.609-5.729,1.609h-8V153.745z
		 M142.318,161.633h1.674c0.797,0,1.414-0.164,1.849-0.492c0.437-0.329,0.654-0.815,0.654-1.464c0-1.151-0.873-1.728-2.616-1.728
		h-1.561V161.633z M142.318,165.697v4.316h1.955c1.733,0,2.601-0.73,2.601-2.194c0-0.683-0.232-1.208-0.694-1.575
		c-0.465-0.365-1.139-0.547-2.019-0.547H142.318z"/>
	<path fill="#4E4E4E" d="M168.374,174.301h-12.205v-20.557h12.205v4.458h-6.652v3.233h6.16v4.456h-6.16v3.883h6.652V174.301z"/>
</g>
<g>
	<path fill="#4E4E4E" d="M36.698,186.634c0,1.112-0.292,1.952-0.875,2.521c-0.583,0.569-1.439,0.854-2.569,0.854h-1.584v-6.624
		h1.789c1.057,0,1.861,0.277,2.413,0.83C36.422,184.769,36.698,185.575,36.698,186.634z M36.195,186.652
		c0-0.947-0.241-1.661-0.723-2.14s-1.189-0.718-2.123-0.718h-1.219v5.807h1.096C35.206,189.601,36.195,188.619,36.195,186.652z"/>
	<path fill="#4E4E4E" d="M43.091,183.385v4.287c0,0.761-0.221,1.355-0.662,1.786c-0.441,0.427-1.055,0.642-1.844,0.642
		c-0.767,0-1.366-0.215-1.796-0.644c-0.43-0.433-0.646-1.034-0.646-1.804v-4.268h0.467v4.287c0,0.637,0.177,1.134,0.53,1.488
		c0.354,0.354,0.853,0.531,1.5,0.531c0.631,0,1.121-0.173,1.468-0.521c0.347-0.35,0.521-0.834,0.521-1.453v-4.332H43.091z"/>
	<path fill="#4E4E4E" d="M49.347,190.009h-0.565l-2.542-3.497l-0.884,0.779v2.718h-0.461v-6.624h0.461v3.443l0.734-0.733l2.597-2.71
		h0.589l-2.715,2.801L49.347,190.009z"/>
	<path fill="#4E4E4E" d="M53.906,190.009h-3.62v-6.624h3.62v0.427h-3.158v2.505h2.98v0.426h-2.98v2.841h3.158V190.009z"/>
	<path fill="#4E4E4E" d="M55.627,183.385l0.055,0.091c-0.227,0.801-0.489,1.527-0.789,2.181h-0.295
		c0.088-0.291,0.18-0.655,0.277-1.096c0.096-0.438,0.17-0.831,0.221-1.176H55.627z"/>
	<path fill="#4E4E4E" d="M60.407,188.3c0,0.555-0.203,0.992-0.609,1.316c-0.407,0.323-0.947,0.483-1.621,0.483
		c-0.81,0-1.43-0.089-1.861-0.268v-0.462c0.477,0.203,1.085,0.305,1.825,0.305c0.544,0,0.976-0.125,1.294-0.374
		c0.319-0.248,0.478-0.576,0.478-0.981c0-0.25-0.053-0.459-0.158-0.623c-0.106-0.165-0.278-0.314-0.517-0.451
		c-0.239-0.135-0.589-0.282-1.051-0.438c-0.676-0.232-1.144-0.484-1.402-0.756c-0.258-0.269-0.388-0.631-0.388-1.079
		c0-0.496,0.194-0.899,0.582-1.213c0.388-0.312,0.888-0.468,1.498-0.468c0.622,0,1.206,0.117,1.753,0.353l-0.168,0.399
		c-0.549-0.23-1.076-0.345-1.577-0.345c-0.489,0-0.879,0.113-1.168,0.34c-0.29,0.227-0.435,0.534-0.435,0.925
		c0,0.244,0.044,0.445,0.134,0.603c0.089,0.156,0.234,0.298,0.438,0.423c0.202,0.126,0.549,0.275,1.042,0.45
		c0.517,0.18,0.904,0.352,1.165,0.521c0.26,0.166,0.449,0.356,0.568,0.57C60.348,187.742,60.407,188.001,60.407,188.3z"/>
	<path fill="#4E4E4E" d="M67.838,190.009h-3.621v-6.624h3.621v0.427h-3.159v2.505h2.982v0.426h-2.982v2.841h3.159V190.009z"/>
	<path fill="#4E4E4E" d="M74.153,190.009h-0.466l-3.924-5.88h-0.037c0.037,0.7,0.055,1.229,0.055,1.585v4.295h-0.444v-6.624h0.462
		l3.919,5.873h0.027c-0.027-0.544-0.042-1.061-0.042-1.551v-4.322h0.449V190.009z"/>
	<path fill="#4E4E4E" d="M77.755,190.009h-0.467v-6.188h-2.152v-0.436h4.771v0.436h-2.152V190.009z"/>
	<path fill="#4E4E4E" d="M81.353,187.125v2.885h-0.461v-6.624h1.576c0.822,0,1.43,0.153,1.822,0.456
		c0.393,0.304,0.589,0.761,0.589,1.369c0,0.446-0.118,0.819-0.351,1.125c-0.234,0.306-0.59,0.524-1.068,0.657l1.798,3.017h-0.553
		l-1.707-2.885H81.353z M81.353,186.726h1.265c0.559,0,0.992-0.126,1.3-0.375c0.308-0.249,0.462-0.616,0.462-1.104
		c0-0.503-0.151-0.872-0.453-1.102c-0.302-0.229-0.794-0.343-1.477-0.343h-1.097V186.726z"/>
	<path fill="#4E4E4E" d="M90.025,190.009h-3.621v-6.624h3.621v0.427h-3.158v2.505h2.981v0.426h-2.981v2.841h3.158V190.009z"/>
	<path fill="#4E4E4E" d="M95.512,185.29c0,0.64-0.218,1.131-0.653,1.472c-0.435,0.342-1.051,0.514-1.849,0.514h-1.023v2.734h-0.462
		v-6.624h1.622C94.723,183.385,95.512,184.021,95.512,185.29z M91.987,186.874h0.91c0.746,0,1.286-0.122,1.618-0.367
		c0.333-0.247,0.499-0.646,0.499-1.199c0-0.51-0.157-0.889-0.471-1.134c-0.314-0.247-0.8-0.37-1.459-0.37h-1.096V186.874z"/>
	<path fill="#4E4E4E" d="M97.414,187.125v2.885h-0.461v-6.624h1.576c0.821,0,1.429,0.153,1.821,0.456
		c0.393,0.304,0.588,0.761,0.588,1.369c0,0.446-0.116,0.819-0.351,1.125s-0.589,0.524-1.067,0.657l1.798,3.017h-0.553l-1.708-2.885
		H97.414z M97.414,186.726h1.265c0.559,0,0.992-0.126,1.301-0.375c0.308-0.249,0.461-0.616,0.461-1.104
		c0-0.503-0.15-0.872-0.453-1.102c-0.303-0.229-0.794-0.343-1.477-0.343h-1.097V186.726z"/>
	<path fill="#4E4E4E" d="M106.085,190.009h-3.619v-6.624h3.619v0.427h-3.157v2.505h2.981v0.426h-2.981v2.841h3.157V190.009z"/>
	<path fill="#4E4E4E" d="M112.402,190.009h-0.466l-3.924-5.88h-0.036c0.036,0.7,0.054,1.229,0.054,1.585v4.295h-0.444v-6.624h0.462
		l3.92,5.873h0.026c-0.026-0.544-0.041-1.061-0.041-1.551v-4.322h0.449V190.009z"/>
	<path fill="#4E4E4E" d="M117.898,190.009h-3.621v-6.624h3.621v0.427h-3.158v2.505h2.982v0.426h-2.982v2.841h3.158V190.009z"/>
	<path fill="#4E4E4E" d="M124.268,183.385v4.287c0,0.761-0.22,1.355-0.661,1.786c-0.44,0.427-1.056,0.642-1.843,0.642
		c-0.769,0-1.367-0.215-1.798-0.644c-0.43-0.433-0.644-1.034-0.644-1.804v-4.268h0.464v4.287c0,0.637,0.177,1.134,0.531,1.488
		c0.354,0.354,0.854,0.531,1.501,0.531c0.63,0,1.119-0.173,1.466-0.521c0.349-0.35,0.522-0.834,0.522-1.453v-4.332H124.268z"/>
	<path fill="#4E4E4E" d="M126.533,187.125v2.885h-0.461v-6.624h1.576c0.821,0,1.428,0.153,1.821,0.456
		c0.392,0.304,0.589,0.761,0.589,1.369c0,0.446-0.118,0.819-0.352,1.125c-0.234,0.306-0.589,0.524-1.067,0.657l1.8,3.017h-0.554
		l-1.708-2.885H126.533z M126.533,186.726h1.264c0.559,0,0.993-0.126,1.301-0.375s0.463-0.616,0.463-1.104
		c0-0.503-0.152-0.872-0.454-1.102c-0.302-0.229-0.795-0.343-1.478-0.343h-1.096V186.726z"/>
	<path fill="#4E4E4E" d="M135.241,188.3c0,0.555-0.203,0.992-0.609,1.316c-0.406,0.323-0.945,0.483-1.62,0.483
		c-0.81,0-1.429-0.089-1.862-0.268v-0.462c0.479,0.203,1.086,0.305,1.826,0.305c0.544,0,0.977-0.125,1.295-0.374
		c0.318-0.248,0.477-0.576,0.477-0.981c0-0.25-0.053-0.459-0.158-0.623c-0.105-0.165-0.278-0.314-0.517-0.451
		c-0.238-0.135-0.59-0.282-1.051-0.438c-0.677-0.232-1.144-0.484-1.402-0.756c-0.259-0.269-0.387-0.631-0.387-1.079
		c0-0.496,0.193-0.899,0.581-1.213c0.388-0.312,0.888-0.468,1.497-0.468c0.622,0,1.208,0.117,1.755,0.353l-0.168,0.399
		c-0.55-0.23-1.076-0.345-1.577-0.345c-0.488,0-0.878,0.113-1.17,0.34c-0.288,0.227-0.434,0.534-0.434,0.925
		c0,0.244,0.044,0.445,0.134,0.603c0.088,0.156,0.234,0.298,0.437,0.423c0.202,0.126,0.55,0.275,1.042,0.45
		c0.517,0.18,0.906,0.352,1.165,0.521c0.259,0.166,0.448,0.356,0.569,0.57C135.183,187.742,135.241,188.001,135.241,188.3z"/>
	<path fill="#4E4E4E" d="M141.439,190.009h-0.467v-3.257h-3.869v3.257h-0.462v-6.624h0.462v2.941h3.869v-2.941h0.467V190.009z"/>
	<path fill="#4E4E4E" d="M143.315,190.009v-6.624h0.462v6.624H143.315z"/>
	<path fill="#4E4E4E" d="M149.64,185.29c0,0.64-0.217,1.131-0.652,1.472c-0.436,0.342-1.052,0.514-1.849,0.514h-1.024v2.734h-0.461
		v-6.624h1.622C148.851,183.385,149.64,184.021,149.64,185.29z M146.114,186.874h0.91c0.747,0,1.285-0.122,1.618-0.367
		c0.332-0.247,0.499-0.646,0.499-1.199c0-0.51-0.157-0.889-0.471-1.134c-0.314-0.247-0.802-0.37-1.46-0.37h-1.097V186.874z"/>
	<path fill="#4E4E4E" d="M157.147,188.3c0,0.555-0.203,0.992-0.609,1.316c-0.406,0.323-0.947,0.483-1.619,0.483
		c-0.811,0-1.431-0.089-1.862-0.268v-0.462c0.477,0.203,1.085,0.305,1.825,0.305c0.545,0,0.974-0.125,1.292-0.374
		c0.319-0.248,0.479-0.576,0.479-0.981c0-0.25-0.053-0.459-0.159-0.623c-0.105-0.165-0.276-0.314-0.517-0.451
		c-0.237-0.135-0.588-0.282-1.051-0.438c-0.676-0.232-1.145-0.484-1.402-0.756c-0.257-0.269-0.386-0.631-0.386-1.079
		c0-0.496,0.193-0.899,0.58-1.213c0.389-0.312,0.888-0.468,1.499-0.468c0.62,0,1.207,0.117,1.754,0.353l-0.169,0.399
		c-0.549-0.23-1.075-0.345-1.577-0.345c-0.489,0-0.879,0.113-1.168,0.34c-0.292,0.227-0.436,0.534-0.436,0.925
		c0,0.244,0.045,0.445,0.134,0.603c0.089,0.156,0.235,0.298,0.438,0.423c0.201,0.126,0.551,0.275,1.042,0.45
		c0.516,0.18,0.904,0.352,1.164,0.521c0.26,0.166,0.449,0.356,0.568,0.57C157.087,187.742,157.147,188.001,157.147,188.3z"/>
	<path fill="#4E4E4E" d="M158.547,190.009v-6.624h0.463v6.19h3.158v0.434H158.547z"/>
	<path fill="#4E4E4E" d="M165.914,186.671h2.443v3.021c-0.643,0.272-1.362,0.408-2.162,0.408c-1.046,0-1.846-0.294-2.404-0.886
		c-0.556-0.59-0.835-1.426-0.835-2.508c0-0.673,0.138-1.271,0.414-1.792c0.276-0.52,0.671-0.924,1.188-1.208
		c0.515-0.282,1.105-0.424,1.772-0.424c0.723,0,1.371,0.133,1.945,0.399l-0.187,0.416c-0.573-0.268-1.169-0.399-1.786-0.399
		c-0.872,0-1.564,0.271-2.075,0.809c-0.514,0.538-0.77,1.266-0.77,2.181c0,0.998,0.243,1.747,0.73,2.25
		c0.486,0.504,1.2,0.754,2.142,0.754c0.61,0,1.131-0.084,1.555-0.257v-2.329h-1.971V186.671z"/>
</g>
</svg>
